<mxfile host="app.diagrams.net" agent="Mozilla/5.0 (Windows NT 10.0; Win64; x64; rv:135.0) Gecko/20100101 Firefox/135.0" version="26.0.11">
  <diagram name="Trang-1" id="SLQuI4cw6ELVvdU5NzWQ">
    <mxGraphModel dx="1751" dy="1077" grid="1" gridSize="10" guides="1" tooltips="1" connect="1" arrows="1" fold="1" page="1" pageScale="1" pageWidth="827" pageHeight="1169" math="0" shadow="0">
      <root>
        <mxCell id="0" />
        <mxCell id="1" parent="0" />
        <mxCell id="U1yJLpILrfk-gPTqElFX-3" value="internet" style="shape=mxgraph.cisco.storage.cloud;sketch=0;html=1;pointerEvents=1;dashed=0;strokeWidth=2;verticalLabelPosition=bottom;verticalAlign=top;align=center;outlineConnect=0;" vertex="1" parent="1">
          <mxGeometry x="40" y="20" width="186" height="106" as="geometry" />
        </mxCell>
        <mxCell id="U1yJLpILrfk-gPTqElFX-5" value="" style="whiteSpace=wrap;html=1;aspect=fixed;" vertex="1" parent="1">
          <mxGeometry x="40" y="160" width="990" height="990" as="geometry" />
        </mxCell>
        <mxCell id="U1yJLpILrfk-gPTqElFX-6" value="&lt;div&gt;&lt;b&gt;&lt;font style=&quot;font-size: 20px;&quot;&gt;PROXMOX&lt;/font&gt;&lt;/b&gt;&lt;/div&gt;" style="rounded=0;whiteSpace=wrap;html=1;" vertex="1" parent="1">
          <mxGeometry x="40" y="160" width="990" height="60" as="geometry" />
        </mxCell>
        <mxCell id="U1yJLpILrfk-gPTqElFX-8" value="&lt;h4 align=&quot;left&quot;&gt;WAN &lt;br&gt;&lt;/h4&gt;&lt;h4 align=&quot;left&quot;&gt;DMZ&lt;/h4&gt;&lt;h4 align=&quot;left&quot;&gt;LAN&lt;/h4&gt;&lt;h4 align=&quot;left&quot;&gt;SOC&lt;/h4&gt;&lt;h4 align=&quot;left&quot;&gt;PFWAN&lt;/h4&gt;" style="text;html=1;align=left;verticalAlign=middle;whiteSpace=wrap;rounded=0;" vertex="1" parent="1">
          <mxGeometry x="490" y="10" width="50" height="150" as="geometry" />
        </mxCell>
        <mxCell id="U1yJLpILrfk-gPTqElFX-9" value="&lt;h4 align=&quot;left&quot;&gt;vmbr0&lt;/h4&gt;&lt;h4 align=&quot;left&quot;&gt;vmbr1&lt;/h4&gt;&lt;h4 align=&quot;left&quot;&gt;vmbr2&lt;/h4&gt;&lt;h4 align=&quot;left&quot;&gt;vmbr3&lt;/h4&gt;&lt;h4 align=&quot;left&quot;&gt;vmbr99&lt;/h4&gt;" style="text;html=1;align=left;verticalAlign=middle;whiteSpace=wrap;rounded=0;" vertex="1" parent="1">
          <mxGeometry x="550" y="10" width="50" height="150" as="geometry" />
        </mxCell>
        <mxCell id="U1yJLpILrfk-gPTqElFX-10" value="&lt;h4 align=&quot;left&quot;&gt;DHCP&lt;/h4&gt;&lt;h4 align=&quot;left&quot;&gt;172.16.10.0/24&lt;/h4&gt;&lt;h4 align=&quot;left&quot;&gt;192.168.10.0/24&lt;/h4&gt;&lt;h4 align=&quot;left&quot;&gt;10.10.10.0/28&lt;/h4&gt;&lt;h4 align=&quot;left&quot;&gt;22.22.22.0/30&lt;/h4&gt;" style="text;html=1;align=left;verticalAlign=middle;whiteSpace=wrap;rounded=0;" vertex="1" parent="1">
          <mxGeometry x="610" y="10" width="140" height="150" as="geometry" />
        </mxCell>
        <mxCell id="U1yJLpILrfk-gPTqElFX-11" value="enp5s0" style="rounded=0;whiteSpace=wrap;html=1;" vertex="1" parent="1">
          <mxGeometry x="190" y="260" width="120" height="60" as="geometry" />
        </mxCell>
        <mxCell id="U1yJLpILrfk-gPTqElFX-12" value="" style="endArrow=none;html=1;rounded=0;exitX=0.5;exitY=0;exitDx=0;exitDy=0;entryX=0.89;entryY=0.87;entryDx=0;entryDy=0;entryPerimeter=0;" edge="1" parent="1" source="U1yJLpILrfk-gPTqElFX-11" target="U1yJLpILrfk-gPTqElFX-3">
          <mxGeometry width="50" height="50" relative="1" as="geometry">
            <mxPoint x="230" y="500" as="sourcePoint" />
            <mxPoint x="280" y="450" as="targetPoint" />
          </mxGeometry>
        </mxCell>
        <mxCell id="U1yJLpILrfk-gPTqElFX-13" value="Card vật lý" style="text;html=1;align=center;verticalAlign=middle;whiteSpace=wrap;rounded=0;" vertex="1" parent="1">
          <mxGeometry x="360" y="275" width="60" height="30" as="geometry" />
        </mxCell>
        <mxCell id="U1yJLpILrfk-gPTqElFX-15" value="" style="endArrow=none;dashed=1;html=1;rounded=0;entryX=1;entryY=0.5;entryDx=0;entryDy=0;exitX=0;exitY=0.5;exitDx=0;exitDy=0;" edge="1" parent="1" source="U1yJLpILrfk-gPTqElFX-13" target="U1yJLpILrfk-gPTqElFX-11">
          <mxGeometry width="50" height="50" relative="1" as="geometry">
            <mxPoint x="60" y="380" as="sourcePoint" />
            <mxPoint x="110" y="330" as="targetPoint" />
          </mxGeometry>
        </mxCell>
        <mxCell id="U1yJLpILrfk-gPTqElFX-20" value="" style="rounded=0;whiteSpace=wrap;html=1;" vertex="1" parent="1">
          <mxGeometry x="60" y="377.5" width="300" height="305" as="geometry" />
        </mxCell>
        <mxCell id="U1yJLpILrfk-gPTqElFX-21" value="" style="rounded=0;whiteSpace=wrap;html=1;" vertex="1" parent="1">
          <mxGeometry x="530" y="715" width="190" height="215" as="geometry" />
        </mxCell>
        <mxCell id="U1yJLpILrfk-gPTqElFX-22" value="" style="rounded=0;whiteSpace=wrap;html=1;" vertex="1" parent="1">
          <mxGeometry x="740" y="715" width="190" height="215" as="geometry" />
        </mxCell>
        <mxCell id="U1yJLpILrfk-gPTqElFX-24" value="" style="shape=mxgraph.cisco.routers.router;sketch=0;html=1;pointerEvents=1;dashed=0;fillColor=#036897;strokeColor=#ffffff;strokeWidth=2;verticalLabelPosition=bottom;verticalAlign=top;align=center;outlineConnect=0;" vertex="1" parent="1">
          <mxGeometry x="171" y="400" width="78" height="53" as="geometry" />
        </mxCell>
        <mxCell id="U1yJLpILrfk-gPTqElFX-25" value="" style="shape=mxgraph.cisco.routers.router;sketch=0;html=1;pointerEvents=1;dashed=0;fillColor=#036897;strokeColor=#ffffff;strokeWidth=2;verticalLabelPosition=bottom;verticalAlign=top;align=center;outlineConnect=0;" vertex="1" parent="1">
          <mxGeometry x="690" y="620" width="78" height="53" as="geometry" />
        </mxCell>
      </root>
    </mxGraphModel>
  </diagram>
</mxfile>
